inDegrees=yes
name=ik_S54_A05_T02
DataType=double
version=3
OpenSimVersion=4.3-2021-08-27-4bc7ad9
endheader
time	pelvis_tilt	pelvis_list	pelvis_rotation	pelvis_tx	pelvis_ty	pelvis_tz	hip_flexion_r	hip_adduction_r	hip_rotation_r	knee_angle_r	knee_angle_r_beta	ankle_angle_r	subtalar_angle_r	mtp_angle_r	hip_flexion_l	hip_adduction_l	hip_rotation_l	knee_angle_l	knee_angle_l_beta	ankle_angle_l	subtalar_angle_l	mtp_angle_l	lumbar_extension	lumbar_bending	lumbar_rotation	arm_flex_r	arm_add_r	arm_rot_r	elbow_flex_r	pro_sup_r	wrist_flex_r	wrist_dev_r	arm_flex_l	arm_add_l	arm_rot_l	elbow_flex_l	pro_sup_l	wrist_flex_l	wrist_dev_l
0	0	0	0	0	0.9399999999999999	0	0	0	0	0	0	0	0	0	0	0	0	0	0	0	0	0	0	0	0	0	0	0	0	89.99999999963507	0	0	0	0	0	0	89.99999999869995	0	0
0.02	-7.055321081734599	-0.3782008370413278	21.21350723860636	0	0.9399999999999999	0	4.107039047114101	-1.91935251347985	-1.382617704986502	6.30211868159612	0.1099927208452965	0	0	0	4.107039047114101	-1.91935251347985	-1.382617704986502	6.30211868159612	0.1099927208452965	0	0	0	-2.849493532972365	-4.163354575636249	-0.1751660387165868	27.92939610844999	0.9501238573978568	-2.395458479988945	52.97324808422313	143.2773466870768	0	0	26.70922748152569	-15.54642786519354	-9.435045780450297	49.13456446032117	145.1162807340104	0	0
0.04	-6.151125615585435	-1.295541566703547	20.32375937948999	0	0.9399999999999999	0	43.83592168972115	-11.72363628323829	-11.18618627494544	54.11254612532807	0.9444420965242749	0	0	0	43.83592168972115	-11.72363628323829	-11.18618627494544	54.11254612532807	0.9444420965242749	0	0	0	-3.295214013765976	-3.047383321473284	0.7998150953783665	27.9245510564691	0.9607444536081989	-2.428893165698669	52.94923477753596	143.3282318326539	0	0	26.69694720559469	-15.55047732268434	-9.44051232435695	49.16024444400477	145.1050357676199	0	0
0.06	-6.143967494632972	-1.298949540362625	20.32518691903685	0	0.9399999999999999	0	43.83686337425033	-11.71759374719442	-11.18374599446859	54.11300517773763	0.944450108500261	0	0	0	43.83686337425033	-11.71759374719442	-11.18374599446859	54.11300517773763	0.944450108500261	0	0	0	-3.291229824591467	-3.050999073552306	0.8002925470544082	27.93982735086539	0.9521493450349304	-2.425470017385015	52.96444690843747	143.2877222809062	0	0	26.70284255907768	-15.54347093914962	-9.435374787597572	49.17175996134821	145.0566820124952	0	0
0.08	-6.143157143513126	-1.297226150393246	20.33346779898251	0	0.9399999999999999	0	43.83588757955513	-11.72216359261268	-11.18587076026707	54.11250636257565	0.9444414025333255	0	0	0	43.83588757955513	-11.72216359261268	-11.18587076026707	54.11250636257565	0.9444414025333255	0	0	0	-3.288090209775052	-3.052081737164252	0.8010956651026324	27.95970992047111	0.9608908680795525	-2.447068343255031	52.94740831974163	143.4310023983056	0	0	26.69917529321317	-15.52246204733189	-9.43010736613455	49.1262995200376	145.128346311068	0	0
0.1	-6.14273647169198	-1.302855798454197	20.33660736552184	0	0.9399999999999999	0	43.83787748058231	-11.71211532768746	-11.1814037915557	54.11352880939565	0.9444592475967611	0	0	0	43.83787748058231	-11.71211532768746	-11.1814037915557	54.11352880939565	0.9444592475967611	0	0	0	-3.293075873552214	-3.052967512084078	0.8040182406640377	27.9555745587917	0.9554972370089946	-2.454968733286605	52.97764872852136	143.3566181544371	0	0	26.71845229552978	-15.51975231032162	-9.42034787736695	49.16276178123023	145.0395965041395	0	0
0.12	-6.129026989062996	-1.309220673114749	20.33796023529283	0	0.9399999999999999	0	43.83675374136592	-11.71691372841998	-11.1837315007713	54.11294223547475	0.9444490099505352	0	0	0	43.83675374136592	-11.71691372841998	-11.1837315007713	54.11294223547475	0.9444490099505352	0	0	0	-3.280401506748654	-3.066297199743007	0.8010603447947925	27.94084068887908	0.9697877391821045	-2.454944870104478	52.95763441434382	143.4519918663166	0	0	26.705824269956	-15.51893355886398	-9.421771883139016	49.13100096744382	145.1218481969704	0	0
0.14	-6.122660938822785	-1.312092521677017	20.3362672877742	0	0.9399999999999999	0	43.83722804894126	-11.71454933303728	-11.18268900648983	54.11318925134276	0.9444533211907365	0	0	0	43.83722804894126	-11.71454933303728	-11.18268900648983	54.11318925134276	0.9444533211907365	0	0	0	-3.276157137732123	-3.070389705033137	0.8054632153998863	27.93269243946003	0.9538045180464075	-2.452382150154172	52.97267683468369	143.4732482446714	0	0	26.69845287373056	-15.52316416031661	-9.395809869087397	49.13956403264282	145.1407096962614	0	0
0.16	-6.122339872758391	-1.317573089313126	20.34367732846602	0	0.9399999999999999	0	43.83773588621479	-11.713260896284	-11.18189336284044	54.11347892722659	0.9444583769886731	0	0	0	43.83773588621479	-11.713260896284	-11.18189336284044	54.11347892722659	0.9444583769886731	0	0	0	-3.278651264941454	-3.07462085882257	0.8101932114649263	27.92989344020515	0.945712548453319	-2.481888241856344	52.98321320251777	143.4988780178172	0	0	26.71011342855011	-15.51799011757915	-9.396811628531367	49.15002153203431	145.1730436808736	0	0
0.18	-6.119512240423404	-1.320201869133626	20.34313599171848	0	0.9399999999999999	0	43.83864018512102	-11.70847689733118	-11.17981593965252	54.11394081985107	0.9444664385357608	0	0	0	43.83864018512102	-11.70847689733118	-11.17981593965252	54.11394081985107	0.9444664385357608	0	0	0	-3.27842770771546	-3.076135563713137	0.8131180856895168	27.93541698553647	0.9257163503983229	-2.485025887602107	53.00343749828346	143.4770039901347	0	0	26.70937355550904	-15.53586573916884	-9.382027751506774	49.17288879208071	145.14908529799	0	0
0.2	-6.1040136613666	-1.333008454906486	20.36107129537063	0	0.9399999999999999	0	43.85224543750689	-11.64691961009587	-11.15098123776773	54.1210136206203	0.9445898821965215	0	0	0	43.85224543750689	-11.64691961009587	-11.15098123776773	54.1210136206203	0.9445898821965215	0	0	0	-3.2855413252845	-3.058304372486375	0.7959110742154227	27.90732755705464	0.9450133229164231	-2.494967659099402	53.02730117282296	143.5952908205179	0	0	26.70769965926318	-15.51282768728401	-9.399116629639792	49.20333125760638	145.2822223641674	0	0
0.22	-6.100088456677684	-1.337431432845963	20.3678180633862	0	0.9399999999999999	0	43.85241094937792	-11.64655751286783	-11.15074953293051	54.12111154968241	0.9445915913810887	0	0	0	43.85241094937792	-11.64655751286783	-11.15074953293051	54.12111154968241	0.9445915913810887	0	0	0	-3.28379430789091	-3.063165390451033	0.79244801928404	27.9149391948159	0.9463902563410272	-2.472398861114945	53.02942674193385	143.6201362003372	0	0	26.71004980710169	-15.51907850126887	-9.388051410989279	49.20614722562492	145.3392265264857	0	0
0.24	-6.098594918487318	-1.342089934336121	20.36596336214355	0	0.9399999999999999	0	43.85490788001097	-11.64472619585974	-11.14797009384308	54.12261474885222	0.9446178271559151	0	0	0	43.85490788001097	-11.64472619585974	-11.14797009384308	54.12261474885222	0.9446178271559151	0	0	0	-3.289326317428365	-3.061123966657646	0.7926295963968294	27.91423270797837	0.9490895357086897	-2.480631337893354	53.04716710994626	143.6151399818887	0	0	26.7169997376098	-15.51966041376095	-9.407654071411272	49.24368251259357	145.4025064341831	0	0
0.26	-6.095134525790091	-1.33738941409043	20.36418756272279	0	0.9399999999999999	0	43.85616886940193	-11.63825592558035	-11.14511512359678	54.12326128443654	0.9446291113305928	0	0	0	43.85616886940193	-11.63825592558035	-11.14511512359678	54.12326128443654	0.9446291113305928	0	0	0	-3.286529361430997	-3.055331196555492	0.7984599596306248	27.92565352782526	0.9385272453064697	-2.453790357914899	53.06269078670802	143.5595317624319	0	0	26.71467909619816	-15.51617951973322	-9.36613491302	49.26939786950703	145.3634822517387	0	0
0.28	-6.094238359868251	-1.33844305456465	20.36549859666618	0	0.9399999999999999	0	43.85533710211644	-11.64213047722096	-11.14692251391316	54.12283874310064	0.9446217365930555	0	0	0	43.85533710211644	-11.64213047722096	-11.14692251391316	54.12283874310064	0.9446217365930555	0	0	0	-3.284473989299307	-3.058971274076987	0.8033822415394418	27.93108816992616	0.9562922696037724	-2.482284287608274	53.01530086237884	143.6251811335132	0	0	26.73115349733953	-15.50958409926011	-9.381593183386865	49.270484535635	145.5595873044114	0	0
0.3	-6.091440808470623	-1.342530020035709	20.36948969260022	0	0.9399999999999999	0	43.85757148814901	-11.6341414952754	-11.14279066794947	54.12405790877482	0.9446430150481973	0	0	0	43.85757148814901	-11.6341414952754	-11.14279066794947	54.12405790877482	0.9446430150481973	0	0	0	-3.287396199233139	-3.058328299968383	0.8058906560194332	27.93348187704742	0.952494327421738	-2.504895778382783	53.04648576899348	143.5853274761632	0	0	26.73134789747113	-15.50983706996003	-9.388276632895527	49.29513570951655	145.5361537104845	0	0
0.32	-6.089343752797029	-1.346735907800547	20.35445225710961	0	0.9399999999999999	0	43.85764543034024	-11.63450337548245	-11.14281881258461	54.12411420421507	0.9446439975889835	0	0	0	43.85764543034024	-11.63450337548245	-11.14281881258461	54.12411420421507	0.9446439975889835	0	0	0	-3.286953970846565	-3.063141202078622	0.8107513992464586	27.93511403177042	0.9858052088327268	-2.527158238647424	53.02995447042363	143.6374973696659	0	0	26.73171142940014	-15.5073780029929	-9.415281309672029	49.2991258120836	145.622154843997	0	0
